<?xml version="1.0" encoding="UTF-8" standalone="no"?>
<svg
   xmlns:dc="http://purl.org/dc/elements/1.1/"
   xmlns:cc="http://creativecommons.org/ns#"
   xmlns:rdf="http://www.w3.org/1999/02/22-rdf-syntax-ns#"
   xmlns:svg="http://www.w3.org/2000/svg"
   xmlns="http://www.w3.org/2000/svg"
   xmlns:sodipodi="http://sodipodi.sourceforge.net/DTD/sodipodi-0.dtd"
   xmlns:inkscape="http://www.inkscape.org/namespaces/inkscape"
   version="1.0"
   width="185pt"
   height="370.17313pt"
   viewBox="0 0 185 370.17313"
   preserveAspectRatio="xMidYMid meet"
   id="svg11728"
   sodipodi:docname="rubbishbin-colour.svg"
   inkscape:version="0.92.1 r15371">
  <defs
     id="defs11732" />
  <sodipodi:namedview
     pagecolor="#ffffff"
     bordercolor="#666666"
     borderopacity="1"
     objecttolerance="10"
     gridtolerance="10"
     guidetolerance="10"
     inkscape:pageopacity="0"
     inkscape:pageshadow="2"
     inkscape:window-width="1366"
     inkscape:window-height="705"
     id="namedview11730"
     showgrid="false"
     inkscape:snap-global="false"
     inkscape:zoom="0.35626714"
     inkscape:cx="114.66667"
     inkscape:cy="-75.371522"
     inkscape:window-x="-8"
     inkscape:window-y="-8"
     inkscape:window-maximized="1"
     inkscape:current-layer="svg11728"
     fit-margin-top="0"
     fit-margin-left="0"
     fit-margin-right="0"
     fit-margin-bottom="0" />
  <metadata
     id="metadata11720">
Created by potrace 1.15, written by Peter Selinger 2001-2017
<rdf:RDF>
  <cc:Work
     rdf:about="">
    <dc:format>image/svg+xml</dc:format>
    <dc:type
       rdf:resource="http://purl.org/dc/dcmitype/StillImage" />
    <dc:title></dc:title>
  </cc:Work>
</rdf:RDF>
</metadata>
  <g
     id="g12301"
     transform="translate(-108,-15.126868)">
    <path
       inkscape:connector-curvature="0"
       id="path12287"
       d="m 177.2051,69.365752 0.743,10.030481 -2.97199,7.801478 7.80148,1.857495 8.91598,3.343493 -0.74299,-2.60049 -0.743,-0.743003 -4.8295,-4.457985 -1.11449,-15.231469 h -3.715 v 0 z"
       style="fill:#71acb0;fill-opacity:1;stroke:none;stroke-width:0.75000006px;stroke-linecap:butt;stroke-linejoin:miter;stroke-opacity:1" />
    <path
       inkscape:connector-curvature="0"
       id="path12285"
       d="m 168.28912,68.251254 -7.05848,2.971993 -7.42998,0.742999 -2.6005,1.857496 4.82949,15.974467 v 1.114492 l -10.03047,8.172983 -6.68699,8.915986 11.88797,-0.37151 h 50.15239 l -6.31548,-12.259466 -4.458,-3.343493 -15.60296,-5.200988 -2.22899,-0.371497 -1.1145,-5.94399 -0.743,-8.172981 z"
       style="fill:#d08855;fill-opacity:1;stroke:none;stroke-width:0.75000006px;stroke-linecap:butt;stroke-linejoin:miter;stroke-opacity:1" />
    <path
       inkscape:connector-curvature="0"
       id="path12283"
       d="m 151.20016,15.126872 -8.54448,14.116969 114.42175,72.070839 -0.3715,5.94399 h -95.84679 l -18.94646,0.743 -27.11944,-0.37151 0.37151,13.37397 15.23146,2.972 1.8575,17.83196 3.71499,86.18781 6.68698,136.71169 1.486,4.0865 4.82949,2.97199 10.03048,0.3715 2.60049,10.40198 0.743,0.37149 h 31.20593 l 5.57249,-4.08648 0.3715,-5.20099 52.75288,-3.3435 13.00247,2.60049 10.03048,-5.94398 5.94398,-5.94399 3.715,-12.63097 -1.8575,-13.37397 -13.74547,-12.25947 -11.88797,-2.60049 -4.45799,1.11449 0.3715,-36.77842 2.97199,-107.36326 1.486,-45.3229 10.40197,-13.00247 3.3435,-28.233936 L 256.33443,79.02473 219.18451,56.73478 210.64003,53.391287 193.92257,41.503314 163.08814,20.69936 Z"
       style="fill:#4b9e58;fill-opacity:1;stroke:none;stroke-width:0.75000006px;stroke-linecap:butt;stroke-linejoin:miter;stroke-opacity:1" />
    <path
       inkscape:connector-curvature="0"
       id="path12289"
       d="m 193.17957,359.8781 -9.28748,1.486 -21.17545,5.20099 -2.972,1.48599 1.8575,14.85997 0.743,0.74301 31.94893,-0.74301 2.22899,-5.94398 z"
       style="fill:#498452;fill-opacity:1;stroke:none;stroke-width:0.75000006px;stroke-linecap:butt;stroke-linejoin:miter;stroke-opacity:1" />
    <ellipse
       ry="26.05179"
       rx="25.308788"
       cy="346.13266"
       cx="259.67792"
       id="path12277"
       style="opacity:1;fill:#a3b9a7;fill-opacity:1;stroke:#000000;stroke-width:2.25;stroke-miterlimit:4;stroke-dasharray:none;stroke-opacity:1" />
    <g
       id="g11726"
       transform="matrix(0.1,0,0,-0.1,0,400)"
       style="fill:#000000;stroke:none">
      <path
         id="path11722"
         d="m 1504,3842 c -6,-4 -30,-36 -54,-71 l -43,-64 26,-21 c 58,-46 701,-453 1034,-655 72,-44 92,-61 93,-78 0,-20 -5,-23 -42,-23 -65,0 -85,9 -99,42 -10,25 -16,29 -38,23 -56,-14 -65,-11 -83,26 -15,32 -20,35 -48,31 -21,-3 -35,-13 -46,-33 -11,-22 -22,-29 -45,-29 -29,0 -30,1 -24,34 6,30 3,37 -23,56 -17,13 -33,33 -36,46 -4,13 -13,24 -22,24 -30,0 -86,-33 -97,-57 -12,-27 -30,-26 -35,3 -2,10 -8,23 -12,28 -5,5 -6,0 -3,-12 l 5,-21 -51,20 c -28,10 -61,19 -72,19 -16,0 -19,4 -14,18 4,9 9,45 12,80 5,57 8,62 29,62 23,0 24,-3 25,-77 l 2,-78 8,84 c 5,46 7,86 5,88 -2,2 -23,5 -47,6 l -44,2 -3,-70 c -4,-93 -17,-103 -25,-19 -7,73 -26,104 -62,104 -13,0 -29,-7 -36,-16 -9,-12 -23,-14 -50,-10 -27,4 -43,1 -60,-12 -29,-25 -28,-61 7,-136 26,-58 27,-60 8,-70 -10,-6 -43,-35 -73,-65 l -54,-54 -21,26 c -12,14 -29,37 -39,51 l -18,26 -35,-26 c -18,-15 -34,-30 -34,-34 0,-5 11,-22 25,-38 14,-17 25,-33 25,-36 0,-3 -40,-6 -90,-6 h -90 v -80 c 0,-63 3,-80 14,-80 8,0 35,-27 60,-59 25,-33 57,-67 71,-78 l 25,-18 15,-285 c 8,-157 24,-517 35,-800 35,-907 51,-1182 66,-1212 19,-37 43,-48 107,-48 h 55 l 7,-62 7,-61 181,6 181,6 28,31 c 30,34 35,54 16,67 -7,4 86,10 207,13 l 220,6 -216,2 -216,2 -13,61 c -10,45 -18,63 -32,67 -10,2 -18,8 -18,13 0,12 -37,11 -45,-1 -3,-5 -16,-10 -29,-10 -12,0 -81,-17 -152,-39 -116,-35 -129,-41 -126,-60 3,-19 -1,-21 -48,-21 -41,0 -56,5 -75,25 -14,13 -25,32 -25,42 0,44 -32,676 -55,1078 -14,242 -31,586 -40,765 -8,179 -17,380 -21,448 l -6,122 h 160 160 l 7,-81 c 5,-57 12,-82 22,-86 25,-10 34,19 29,95 l -4,72 h 204 204 l 2,-57 c 0,-32 0,-67 -1,-77 -1,-20 14,-36 37,-36 9,0 12,24 12,85 v 85 h 205 205 l -5,-112 c -9,-178 -24,-868 -31,-1389 l -7,-476 -44,-23 c -162,-86 -193,-320 -57,-440 21,-18 38,-38 36,-42 -1,-5 3,-8 10,-6 7,1 37,-4 66,-11 99,-25 191,4 255,80 38,44 68,116 66,158 -1,16 -4,9 -10,-19 -29,-149 -207,-234 -352,-167 -153,70 -187,286 -61,396 51,46 135,67 204,53 108,-23 191,-99 209,-192 6,-28 9,-35 10,-19 2,42 -28,114 -65,157 -48,57 -110,85 -190,85 h -64 v 41 c 0,22 7,205 15,406 8,201 19,536 25,745 13,505 18,600 31,629 6,13 19,53 28,87 12,48 21,65 36,67 36,7 53,32 64,95 15,92 23,200 14,213 -28,41 -573,387 -595,379 -8,-3 -40,17 -73,45 -33,28 -91,69 -130,92 -38,23 -145,88 -237,145 -163,101 -182,110 -204,95 z m 163,-86 c 259,-166 356,-236 479,-345 71,-63 186,-161 256,-220 70,-58 125,-107 124,-109 -2,-1 -102,62 -222,141 -121,79 -318,204 -439,277 -121,73 -261,159 -312,192 l -92,60 16,26 c 28,46 46,63 60,58 7,-3 66,-39 130,-80 z m 688,-446 c 22,-15 103,-64 179,-109 77,-44 133,-81 124,-81 -8,0 -34,-27 -58,-61 -27,-39 -46,-57 -52,-51 -6,6 -6,18 2,33 12,21 7,28 -71,103 -46,45 -129,123 -184,174 -99,92 -99,92 -40,56 33,-21 78,-49 100,-64 z m -655,-36 c 6,-14 10,-56 10,-93 v -69 l 58,-7 c 66,-8 175,-53 168,-69 -3,-6 -10,-30 -17,-53 l -11,-43 h -108 c -59,0 -169,-3 -245,-7 l -137,-6 15,29 c 15,30 100,114 114,114 5,0 14,4 21,9 10,6 7,24 -18,85 -24,62 -28,81 -19,98 9,17 18,19 49,15 25,-3 46,0 57,9 28,21 53,17 63,-12 z m 950,-419 v -60 h -745 -745 v 61 61 l 745,-1 745,-1 z M 1914,368 c 3,-13 9,-58 13,-100 l 6,-78 h -59 c -32,0 -102,-3 -155,-6 l -95,-7 -12,65 c -7,36 -12,70 -12,76 0,5 52,19 115,31 63,12 125,26 137,31 38,15 55,11 62,-12 z"
         inkscape:connector-curvature="0" />
      <path
         id="path11724"
         d="m 2535,692 c -47,-22 -92,-72 -101,-110 -3,-15 -8,-33 -10,-40 -10,-32 19,-103 57,-136 62,-57 149,-60 210,-9 30,26 59,78 59,105 -1,7 -7,-1 -14,-18 -28,-64 -110,-102 -180,-83 -110,30 -148,173 -65,243 74,62 204,32 246,-58 l 14,-31 -6,30 c -19,94 -123,147 -210,107 z"
         inkscape:connector-curvature="0" />
    </g>
    <path
       inkscape:connector-curvature="0"
       id="path12279"
       d="m 200.3,372 56.40593,-1.71992 -1.85749,1.8575 -30.46294,0.3715 -28.23393,2.22899 z"
       style="fill:#000000;fill-opacity:1;stroke:#000000;stroke-width:0.75000006px;stroke-linecap:butt;stroke-linejoin:miter;stroke-opacity:1" />
    <path
       inkscape:connector-curvature="0"
       id="path12281"
       d="m 183.14909,70.851748 1.1145,14.11697 6.68699,4.829491 1.486,4.82949 2.97198,0.371497 -4.82949,-6.686985 -3.71499,-3.71499 -2.22899,-13.745473 z"
       style="fill:#000000;fill-opacity:1;stroke:#000000;stroke-width:0.75000006px;stroke-linecap:butt;stroke-linejoin:miter;stroke-opacity:1" />
  </g>
</svg>
